HIERARCHY
ROOT Hips
{
 OFFSET 0.000000 0.000000 0.000000
 CHANNELS 6 Xposition Yposition Zposition Yrotation Xrotation Zrotation
 JOINT Chest
 {
  OFFSET 0.000000 10.383400 0.001500
  CHANNELS 3 Yrotation Xrotation Zrotation
  JOINT Chest2
  {
   OFFSET 0.000000 10.418200 -0.003100
   CHANNELS 3 Yrotation Xrotation Zrotation
   JOINT Chest3
   {
    OFFSET 0.000000 10.375100 0.000000
    CHANNELS 3 Yrotation Xrotation Zrotation
    JOINT Chest4
    {
     OFFSET 0.000000 10.364600 0.000000
     CHANNELS 3 Yrotation Xrotation Zrotation
     JOINT Neck
     {
      OFFSET 0.000000 15.642200 0.000000
      CHANNELS 3 Yrotation Xrotation Zrotation
      JOINT Head
      {
       OFFSET 0.000000 9.697300 -0.006500
       CHANNELS 3 Yrotation Xrotation Zrotation
       End Site
       {
        OFFSET 0.000000 18.492200 -0.003400
       }
      }
     }
     JOINT RightCollar
     {
      OFFSET -3.166800 10.349300 0.000000
      CHANNELS 3 Yrotation Xrotation Zrotation
      JOINT RightShoulder
      {
       OFFSET -14.729700 0.000000 0.000000
       CHANNELS 3 Yrotation Xrotation Zrotation
       JOINT RightElbow
       {
        OFFSET 0.000000 -32.224300 0.000000
        CHANNELS 3 Yrotation Xrotation Zrotation
        JOINT RightWrist
        {
         OFFSET 0.000000 -26.084100 0.000000
         CHANNELS 3 Yrotation Xrotation Zrotation
         End Site
         {
          OFFSET 0.000000 -19.319400 0.000000
         }
        }
       }
      }
     }
     JOINT LeftCollar
     {
      OFFSET 3.166800 10.349300 0.000000
      CHANNELS 3 Yrotation Xrotation Zrotation
      JOINT LeftShoulder
      {
       OFFSET 14.729700 0.000000 0.000000
       CHANNELS 3 Yrotation Xrotation Zrotation
       JOINT LeftElbow
       {
        OFFSET 0.000000 -32.224300 0.000000
        CHANNELS 3 Yrotation Xrotation Zrotation
        JOINT LeftWrist
        {
         OFFSET 0.000000 -26.084100 0.000000
         CHANNELS 3 Yrotation Xrotation Zrotation
         End Site
         {
          OFFSET 0.000000 -19.319400 0.000000
         }
        }
       }
      }
     }
    }
   }
  }
 }
 JOINT RightHip
 {
  OFFSET -8.428900 -0.007500 -0.000800
  CHANNELS 3 Yrotation Xrotation Zrotation
  JOINT RightKnee
  {
   OFFSET 0.000000 -43.834600 0.000700
   CHANNELS 3 Yrotation Xrotation Zrotation
   JOINT RightAnkle
   {
    OFFSET 0.000000 -42.757000 0.001200
    CHANNELS 3 Yrotation Xrotation Zrotation
    JOINT RightToe
    {
     OFFSET 0.000000 -6.946900 15.649300
     CHANNELS 3 Yrotation Xrotation Zrotation
     End Site
     {
      OFFSET 0.000000 -1.580800 6.825800
     }
    }
   }
  }
 }
 JOINT LeftHip
 {
  OFFSET 8.428900 -0.007500 -0.000800
  CHANNELS 3 Yrotation Xrotation Zrotation
  JOINT LeftKnee
  {
   OFFSET 0.000000 -43.834600 0.000700
   CHANNELS 3 Yrotation Xrotation Zrotation
   JOINT LeftAnkle
   {
    OFFSET 0.000000 -42.757000 0.001200
    CHANNELS 3 Yrotation Xrotation Zrotation
    JOINT LeftToe
    {
     OFFSET 0.000000 -6.946900 15.649300
     CHANNELS 3 Yrotation Xrotation Zrotation
     End Site
     {
      OFFSET 0.000000 -1.580800 6.825800
     }
    }
   }
  }
 }
}
MOTION
Frames: 5
Frame Time: 0.008333
0.000000 93.354300 0.000000 0.000000 -5.767877 0.000000 0.000000 11.653817 0.000000 0.000000 -5.885947 0.000000 0.000000 -0.000000 0.000000 0.000000 -0.000000 0.000000 0.000000 12.528835 0.000000 0.000000 0.711642 0.000000 0.000000 -0.000000 0.000000 0.000000 0.000000 -90.000000 0.000000 -2.309062 0.000000 0.000000 2.309062 0.000000 0.000000 -0.000000 0.000000 0.000000 -0.000000 90.000000 0.000000 -2.309062 0.000000 0.000000 2.309062 0.000000 0.000000 8.520406 0.000000 0.000000 1.905762 0.000000 -0.000000 -4.658285 0.000000 0.000000 -0.000000 0.000000 0.000000 8.520406 0.000000 0.000000 1.905762 0.000000 -0.000000 -4.658285 0.000000 0.000000 -0.000000 0.000000
-1.264912 151.165385 -2.906330 176.656509 -14.337338 -2.628510 -0.384814 14.707416 1.857213 -0.054813 1.324164 0.172210 -0.088744 2.235503 0.284835 -0.355722 13.168152 1.641455 -1.690879 12.819971 -2.670040 -1.168793 -12.214875 -2.419295 3.439052 -3.031339 -0.068802 18.219926 -18.099481 -12.185710 47.384248 -43.196894 -24.106368 17.402920 4.746693 -29.303712 -8.163141 -1.030923 -0.421192 0.678329 -21.105067 7.208589 -19.776979 -53.566903 -0.418552 -14.479791 4.283536 14.812467 1.181025 -53.348626 7.920923 -92.770714 84.066503 -90.643212 -0.207737 -20.744953 0.935227 -0.008927 0.017217 -0.011328 3.196364 -53.932641 -7.178728 95.096698 80.430615 100.476827 7.980599 -21.195359 -8.727758 0.002665 -0.032414 0.011960
-1.862435 143.215674 -2.128973 176.648230 -14.338585 -2.621272 -0.376985 14.709891 1.849137 -0.051477 1.329638 0.168311 -0.088388 2.233327 0.284439 -0.351308 13.171783 1.645449 -1.693516 12.813942 -2.665241 -1.170419 -12.218166 -2.416787 3.435870 -3.047571 -0.079542 18.225554 -18.097361 -12.174140 47.370230 -43.188786 -24.092237 17.409232 4.746152 -29.322561 -8.177942 -1.037569 -0.406918 0.685401 -21.102307 7.196784 -19.762272 -53.569422 -0.428908 -14.460061 4.274112 14.833038 1.196541 -53.343801 7.911424 -92.699118 84.073695 -90.578530 -0.214088 -20.733173 0.942664 -0.008097 0.010981 -0.003595 3.207906 -53.933390 -7.183530 95.112718 80.434347 100.492790 7.985472 -21.198465 -8.730975 0.003736 -0.015355 0.001658
-2.354529 136.668843 -1.488835 176.643949 -14.339704 -2.616139 -0.372078 14.714022 1.844784 -0.052619 1.327394 0.168753 -0.084233 2.241960 0.282205 -0.352953 13.166262 1.647448 -1.692480 12.812955 -2.662083 -1.168693 -12.216254 -2.403596 3.434756 -3.059166 -0.093732 18.226746 -18.094889 -12.159531 47.362224 -43.185927 -24.086890 17.421622 4.742645 -29.343044 -8.188941 -1.038830 -0.396430 0.695541 -21.103923 7.186461 -19.703013 -53.563221 -0.482120 -14.460723 4.265300 14.851401 1.206628 -53.338990 7.903013 -92.641294 84.072535 -90.522492 -0.210966 -20.724629 0.943001 -0.005311 0.004562 -0.002358 3.215054 -53.933141 -7.188928 95.109628 80.435417 100.488536 7.994928 -21.198798 -8.734757 0.004054 -0.008053 0.001799
-2.710466 131.940533 -1.026688 176.642609 -14.341033 -2.610376 -0.369689 14.717658 1.838651 -0.052483 1.327965 0.168759 -0.085759 2.240880 0.282261 -0.352196 13.167870 1.647110 -1.690859 12.815355 -2.655327 -1.170128 -12.219903 -2.401117 3.433976 -3.066292 -0.100071 18.231028 -18.094194 -12.153578 47.344068 -43.172831 -24.067153 17.430690 4.727076 -29.371727 -8.195286 -1.042138 -0.383595 0.703216 -21.101848 7.167623 -19.669836 -53.556415 -0.506039 -14.445106 4.260835 14.864569 1.213884 -53.337937 7.895200 -92.634983 84.070443 -90.517860 -0.212313 -20.716671 0.943281 -0.002476 -0.002177 -0.001099 3.223040 -53.932187 -7.197360 95.107925 80.436111 100.486973 7.990928 -21.201232 -8.733894 0.002411 -0.003524 0.001070
